<svg xmlns="http://www.w3.org/2000/svg" xmlns:xlink="http://www.w3.org/1999/xlink" width="500" zoomAndPan="magnify" viewBox="0 0 375 374.999991" height="500" preserveAspectRatio="xMidYMid meet" version="1.0"><path fill="#fb802a" d="M 190.832031 310.253906 L 190.832031 65.082031 L 289.253906 65.082031 C 314.703125 65.082031 334.144531 70.980469 347.558594 82.769531 C 360.992188 94.542969 367.71875 109.660156 367.71875 128.125 C 367.71875 143.527344 363.5625 155.84375 355.269531 165.074219 C 346.96875 174.285156 336.863281 180.523438 324.964844 183.796875 C 338.980469 186.601562 350.539062 193.558594 359.640625 204.65625 C 368.761719 215.734375 373.324219 228.636719 373.324219 243.335938 C 373.324219 262.746094 366.316406 278.746094 352.300781 291.363281 C 338.28125 303.960938 318.429688 310.253906 292.757812 310.253906 Z M 235.652344 168.042969 L 282.578125 168.042969 C 295.195312 168.042969 304.882812 165.132812 311.648438 159.300781 C 318.429688 153.449219 321.828125 145.164062 321.828125 134.433594 C 321.828125 124.15625 318.5 116.035156 311.847656 110.070312 C 305.191406 104.113281 295.203125 101.125 281.878906 101.125 L 235.652344 101.125 Z M 235.652344 273.84375 L 285.75 273.84375 C 299.050781 273.84375 309.378906 270.753906 316.722656 264.5625 C 324.082031 258.355469 327.769531 249.660156 327.769531 238.464844 C 327.769531 227.007812 323.914062 218.023438 316.21875 211.496094 C 308.519531 204.957031 298.132812 201.683594 285.046875 201.683594 L 235.652344 201.683594 Z M 235.652344 273.84375 " fill-opacity="1" fill-rule="nonzero"/><path fill="#05a2e5" d="M 184.773438 310.316406 L 184.773438 64.914062 L 86.257812 64.914062 C 60.789062 64.914062 41.328125 70.820312 27.898438 82.621094 C 14.453125 94.40625 7.722656 109.539062 7.722656 128.019531 C 7.722656 143.4375 11.878906 155.765625 20.183594 165 C 28.492188 174.222656 38.605469 180.46875 50.515625 183.742188 C 36.484375 186.546875 24.917969 193.511719 15.804688 204.621094 C 6.675781 215.710938 2.109375 228.625 2.109375 243.339844 C 2.109375 262.765625 9.125 278.78125 23.15625 291.410156 C 37.1875 304.019531 57.054688 310.316406 82.75 310.316406 Z M 139.910156 167.972656 L 92.941406 167.972656 C 80.3125 167.972656 70.617188 165.058594 63.84375 159.222656 C 57.054688 153.367188 53.65625 145.074219 53.65625 134.335938 C 53.65625 124.042969 56.988281 115.917969 63.644531 109.949219 C 70.308594 103.984375 80.304688 100.996094 93.640625 100.996094 L 139.910156 100.996094 Z M 139.910156 273.871094 L 89.765625 273.871094 C 76.453125 273.871094 66.117188 270.78125 58.765625 264.585938 C 51.398438 258.371094 47.707031 249.667969 47.707031 238.460938 C 47.707031 226.996094 51.566406 218 59.265625 211.46875 C 66.976562 204.921875 77.375 201.648438 90.46875 201.648438 L 139.910156 201.648438 Z M 139.910156 273.871094 " fill-opacity="1" fill-rule="nonzero"/></svg>