<svg xmlns="http://www.w3.org/2000/svg" xmlns:xlink="http://www.w3.org/1999/xlink" width="500" zoomAndPan="magnify" viewBox="0 0 375 254.999984" height="340" preserveAspectRatio="xMidYMid meet" version="1.0"><defs><clipPath id="d8acb27bdc"><path d="M 190 7.425781 L 369 7.425781 L 369 248 L 190 248 Z M 190 7.425781 " clip-rule="nonzero"/></clipPath></defs><g clip-path="url(#d8acb27bdc)"><path fill="#fb802a" d="M 190.75 247.335938 L 190.75 7.992188 L 286.835938 7.992188 C 311.679688 7.992188 330.65625 13.75 343.753906 25.257812 C 356.871094 36.753906 363.433594 51.511719 363.433594 69.539062 C 363.433594 84.574219 359.378906 96.597656 351.28125 105.605469 C 343.175781 114.597656 333.3125 120.691406 321.699219 123.882812 C 335.382812 126.621094 346.664062 133.414062 355.550781 144.246094 C 364.453125 155.066406 368.910156 167.65625 368.910156 182.011719 C 368.910156 200.957031 362.066406 216.578125 348.382812 228.894531 C 334.699219 241.195312 315.320312 247.335938 290.257812 247.335938 Z M 234.507812 108.503906 L 280.320312 108.503906 C 292.632812 108.503906 302.089844 105.664062 308.699219 99.96875 C 315.320312 94.257812 318.636719 86.171875 318.636719 75.695312 C 318.636719 65.660156 315.386719 57.734375 308.894531 51.910156 C 302.394531 46.09375 292.644531 43.179688 279.632812 43.179688 L 234.507812 43.179688 Z M 234.507812 211.789062 L 283.414062 211.789062 C 296.398438 211.789062 306.480469 208.777344 313.648438 202.730469 C 320.835938 196.671875 324.433594 188.183594 324.433594 177.253906 C 324.433594 166.070312 320.671875 157.296875 313.160156 150.925781 C 305.644531 144.539062 295.5 141.347656 282.730469 141.347656 L 234.507812 141.347656 Z M 234.507812 211.789062 " fill-opacity="1" fill-rule="nonzero"/></g><path fill="#05a2e5" d="M 184.839844 247.398438 L 184.839844 7.828125 L 88.664062 7.828125 C 63.800781 7.828125 44.800781 13.59375 31.691406 25.113281 C 18.566406 36.617188 11.996094 51.390625 11.996094 69.433594 C 11.996094 84.484375 16.054688 96.519531 24.160156 105.535156 C 32.269531 114.535156 42.144531 120.636719 53.769531 123.832031 C 40.074219 126.570312 28.78125 133.371094 19.886719 144.214844 C 10.976562 155.042969 6.515625 167.644531 6.515625 182.011719 C 6.515625 200.976562 13.363281 216.613281 27.0625 228.941406 C 40.757812 241.25 60.15625 247.398438 85.242188 247.398438 Z M 141.042969 108.4375 L 95.1875 108.4375 C 82.859375 108.4375 73.394531 105.59375 66.78125 99.894531 C 60.15625 94.179688 56.835938 86.082031 56.835938 75.597656 C 56.835938 65.554688 60.089844 57.621094 66.585938 51.789062 C 73.09375 45.96875 82.851562 43.050781 95.875 43.050781 L 141.042969 43.050781 Z M 141.042969 211.820312 L 92.089844 211.820312 C 79.09375 211.820312 69 208.800781 61.824219 202.753906 C 54.636719 196.6875 51.03125 188.191406 51.03125 177.25 C 51.03125 166.054688 54.796875 157.273438 62.316406 150.898438 C 69.839844 144.507812 79.992188 141.3125 92.773438 141.3125 L 141.042969 141.3125 Z M 141.042969 211.820312 " fill-opacity="1" fill-rule="nonzero"/></svg>