<svg xmlns="http://www.w3.org/2000/svg" xmlns:xlink="http://www.w3.org/1999/xlink" width="500" zoomAndPan="magnify" viewBox="0 0 375 112.499997" height="150" preserveAspectRatio="xMidYMid meet" version="1.0"><defs><clipPath id="60b39346f8"><path d="M 329.054688 92.164062 L 334 92.164062 L 334 98 L 329.054688 98 Z M 329.054688 92.164062 " clip-rule="nonzero"/></clipPath><clipPath id="e10d2d507a"><path d="M 332 93 L 338 93 L 338 99.625 L 332 99.625 Z M 332 93 " clip-rule="nonzero"/></clipPath><clipPath id="d052a9a3a5"><path d="M 339 92.164062 L 345 92.164062 L 345 98 L 339 98 Z M 339 92.164062 " clip-rule="nonzero"/></clipPath><clipPath id="74816556b6"><path d="M 355 92.164062 L 360 92.164062 L 360 98 L 355 98 Z M 355 92.164062 " clip-rule="nonzero"/></clipPath><clipPath id="0c0efab263"><path d="M 364 93 L 370.433594 93 L 370.433594 98 L 364 98 Z M 364 93 " clip-rule="nonzero"/></clipPath><clipPath id="c85e3e012e"><path d="M 168 12.222656 L 199 12.222656 L 199 44 L 168 44 Z M 168 12.222656 " clip-rule="nonzero"/></clipPath><clipPath id="15da87564c"><path d="M 229 12.222656 L 252 12.222656 L 252 44 L 229 44 Z M 229 12.222656 " clip-rule="nonzero"/></clipPath></defs><path fill="#fb802a" d="M 85.035156 106.871094 L 85.035156 5.128906 L 125.875 5.128906 C 136.4375 5.128906 144.503906 7.578125 150.074219 12.46875 C 155.648438 17.355469 158.4375 23.628906 158.4375 31.292969 C 158.4375 37.683594 156.714844 42.792969 153.273438 46.625 C 149.828125 50.445312 145.632812 53.035156 140.695312 54.394531 C 146.511719 55.558594 151.308594 58.445312 155.085938 63.050781 C 158.871094 67.648438 160.765625 73 160.765625 79.101562 C 160.765625 87.15625 157.855469 93.796875 152.039062 99.03125 C 146.222656 104.261719 137.984375 106.871094 127.332031 106.871094 Z M 103.632812 47.855469 L 123.105469 47.855469 C 128.34375 47.855469 132.363281 46.648438 135.171875 44.226562 C 137.984375 41.800781 139.394531 38.363281 139.394531 33.910156 C 139.394531 29.644531 138.011719 26.277344 135.253906 23.800781 C 132.488281 21.328125 128.34375 20.089844 122.816406 20.089844 L 103.632812 20.089844 Z M 103.632812 91.761719 L 124.421875 91.761719 C 129.941406 91.761719 134.226562 90.480469 137.273438 87.910156 C 140.328125 85.335938 141.859375 81.726562 141.859375 77.078125 C 141.859375 72.324219 140.261719 68.597656 137.066406 65.890625 C 133.871094 63.175781 129.5625 61.816406 124.132812 61.816406 L 103.632812 61.816406 Z M 103.632812 91.761719 " fill-opacity="1" fill-rule="nonzero"/><path fill="#05a2e5" d="M 80.484375 106.964844 L 80.484375 5.019531 L 39.558594 5.019531 C 28.976562 5.019531 20.890625 7.472656 15.3125 12.375 C 9.726562 17.269531 6.929688 23.554688 6.929688 31.234375 C 6.929688 37.636719 8.65625 42.757812 12.105469 46.597656 C 15.558594 50.425781 19.761719 53.023438 24.707031 54.382812 C 18.878906 55.546875 14.074219 58.441406 10.289062 63.054688 C 6.496094 67.664062 4.597656 73.027344 4.597656 79.140625 C 4.597656 87.210938 7.511719 93.867188 13.339844 99.113281 C 19.171875 104.351562 27.425781 106.964844 38.101562 106.964844 Z M 61.84375 47.832031 L 42.332031 47.832031 C 37.085938 47.832031 33.058594 46.621094 30.246094 44.195312 C 27.425781 41.765625 26.011719 38.320312 26.011719 33.855469 C 26.011719 29.582031 27.398438 26.207031 30.160156 23.726562 C 32.929688 21.25 37.082031 20.007812 42.625 20.007812 L 61.84375 20.007812 Z M 61.84375 91.824219 L 41.015625 91.824219 C 35.484375 91.824219 31.1875 90.542969 28.136719 87.96875 C 25.074219 85.386719 23.542969 81.769531 23.542969 77.113281 C 23.542969 72.351562 25.144531 68.613281 28.34375 65.902344 C 31.546875 63.179688 35.867188 61.820312 41.304688 61.820312 L 61.84375 61.820312 Z M 61.84375 91.824219 " fill-opacity="1" fill-rule="nonzero"/><g clip-path="url(#60b39346f8)"><path fill="#a6a6a6" d="M 331.148438 97.800781 C 330.867188 97.800781 330.628906 97.738281 330.441406 97.621094 C 330.253906 97.5 330.121094 97.347656 330.042969 97.160156 L 329.96875 97.171875 L 329.84375 97.726562 L 329.273438 97.726562 L 330.421875 92.316406 L 330.996094 92.316406 L 330.539062 94.441406 L 330.609375 94.460938 C 330.917969 94.019531 331.367188 93.796875 331.953125 93.796875 C 332.195312 93.796875 332.414062 93.855469 332.609375 93.96875 C 332.808594 94.082031 332.964844 94.25 333.078125 94.46875 C 333.191406 94.6875 333.25 94.945312 333.25 95.246094 C 333.25 95.417969 333.230469 95.605469 333.191406 95.796875 C 333.042969 96.492188 332.800781 97 332.457031 97.320312 C 332.109375 97.640625 331.675781 97.800781 331.148438 97.800781 Z M 331.117188 97.289062 C 331.511719 97.289062 331.828125 97.175781 332.0625 96.941406 C 332.304688 96.707031 332.480469 96.324219 332.59375 95.796875 C 332.636719 95.585938 332.660156 95.398438 332.660156 95.226562 C 332.660156 94.613281 332.359375 94.304688 331.757812 94.304688 C 331.394531 94.304688 331.078125 94.429688 330.8125 94.679688 C 330.546875 94.925781 330.363281 95.296875 330.253906 95.796875 C 330.210938 95.992188 330.191406 96.167969 330.191406 96.320312 C 330.191406 96.648438 330.273438 96.890625 330.433594 97.054688 C 330.597656 97.210938 330.828125 97.289062 331.117188 97.289062 Z M 331.117188 97.289062 " fill-opacity="1" fill-rule="nonzero"/></g><g clip-path="url(#e10d2d507a)"><path fill="#a6a6a6" d="M 333.621094 99.359375 C 333.5 99.359375 333.382812 99.34375 333.273438 99.316406 C 333.167969 99.292969 333.074219 99.257812 332.996094 99.210938 L 333.195312 98.765625 L 333.261719 98.738281 C 333.308594 98.777344 333.371094 98.804688 333.453125 98.828125 C 333.539062 98.851562 333.621094 98.863281 333.710938 98.863281 C 333.863281 98.863281 333.992188 98.84375 334.101562 98.800781 C 334.214844 98.757812 334.316406 98.691406 334.40625 98.597656 C 334.496094 98.5 334.59375 98.367188 334.699219 98.191406 L 334.929688 97.820312 L 334.207031 93.871094 L 334.792969 93.871094 L 335.339844 97.015625 L 335.40625 97.015625 L 337.222656 93.871094 L 337.871094 93.871094 L 335.222656 98.347656 C 335.070312 98.597656 334.921875 98.796875 334.773438 98.945312 C 334.625 99.09375 334.457031 99.199219 334.277344 99.261719 C 334.097656 99.328125 333.878906 99.359375 333.621094 99.359375 Z M 333.621094 99.359375 " fill-opacity="1" fill-rule="nonzero"/></g><g clip-path="url(#d052a9a3a5)"><path fill="#a6a6a6" d="M 339.796875 97.726562 L 340.878906 92.613281 L 342.820312 92.613281 C 343.082031 92.613281 343.300781 92.65625 343.484375 92.746094 C 343.671875 92.828125 343.8125 92.945312 343.90625 93.097656 C 344.003906 93.25 344.050781 93.417969 344.050781 93.601562 C 344.050781 93.683594 344.039062 93.765625 344.019531 93.851562 C 343.957031 94.132812 343.851562 94.359375 343.703125 94.523438 C 343.554688 94.691406 343.355469 94.808594 343.105469 94.878906 L 343.085938 94.945312 C 343.328125 95.019531 343.519531 95.148438 343.660156 95.324219 C 343.800781 95.5 343.871094 95.722656 343.871094 95.992188 C 343.871094 96.113281 343.859375 96.230469 343.832031 96.34375 C 343.738281 96.792969 343.535156 97.136719 343.230469 97.371094 C 342.925781 97.609375 342.476562 97.726562 341.878906 97.726562 Z M 342.335938 94.757812 C 342.519531 94.757812 342.6875 94.726562 342.832031 94.660156 C 342.980469 94.59375 343.101562 94.503906 343.199219 94.394531 C 343.292969 94.277344 343.359375 94.144531 343.390625 93.996094 C 343.410156 93.90625 343.421875 93.820312 343.421875 93.738281 C 343.421875 93.539062 343.359375 93.382812 343.238281 93.273438 C 343.113281 93.160156 342.929688 93.105469 342.6875 93.105469 L 341.378906 93.105469 L 341.027344 94.757812 Z M 341.941406 97.226562 C 342.667969 97.226562 343.101562 96.898438 343.242188 96.238281 C 343.261719 96.144531 343.273438 96.058594 343.273438 95.984375 C 343.273438 95.753906 343.195312 95.574219 343.039062 95.449219 C 342.878906 95.324219 342.652344 95.257812 342.359375 95.257812 L 340.921875 95.257812 L 340.507812 97.226562 Z M 341.941406 97.226562 " fill-opacity="1" fill-rule="nonzero"/></g><path fill="#a6a6a6" d="M 345.871094 97.800781 C 345.648438 97.800781 345.457031 97.753906 345.292969 97.664062 C 345.132812 97.574219 345.007812 97.445312 344.925781 97.285156 C 344.84375 97.121094 344.800781 96.9375 344.800781 96.722656 C 344.800781 96.601562 344.816406 96.472656 344.847656 96.339844 L 345.367188 93.871094 L 345.941406 93.871094 L 345.398438 96.425781 C 345.382812 96.5 345.375 96.578125 345.375 96.65625 C 345.375 96.855469 345.433594 97.015625 345.554688 97.128906 C 345.675781 97.246094 345.839844 97.304688 346.050781 97.304688 C 346.402344 97.304688 346.695312 97.1875 346.941406 96.960938 C 347.191406 96.734375 347.367188 96.363281 347.476562 95.847656 L 347.898438 93.871094 L 348.472656 93.871094 L 347.652344 97.726562 L 347.109375 97.726562 L 347.238281 97.121094 L 347.171875 97.105469 C 347.011719 97.34375 346.835938 97.519531 346.636719 97.632812 C 346.4375 97.746094 346.183594 97.800781 345.871094 97.800781 Z M 345.871094 97.800781 " fill-opacity="1" fill-rule="nonzero"/><path fill="#a6a6a6" d="M 348.988281 97.726562 L 349.8125 93.871094 L 350.351562 93.871094 L 350.226562 94.4375 L 350.300781 94.449219 C 350.417969 94.242188 350.585938 94.082031 350.804688 93.96875 C 351.03125 93.855469 351.273438 93.796875 351.546875 93.796875 C 351.832031 93.796875 352.046875 93.859375 352.191406 93.980469 C 352.335938 94.105469 352.441406 94.277344 352.503906 94.511719 L 352.578125 94.511719 C 352.765625 94.273438 352.960938 94.097656 353.167969 93.976562 C 353.375 93.855469 353.621094 93.796875 353.902344 93.796875 C 354.214844 93.796875 354.453125 93.875 354.625 94.039062 C 354.792969 94.199219 354.878906 94.425781 354.878906 94.714844 C 354.878906 94.835938 354.867188 94.964844 354.839844 95.09375 L 354.28125 97.726562 L 353.714844 97.726562 L 354.269531 95.109375 C 354.289062 95.011719 354.300781 94.925781 354.300781 94.851562 C 354.300781 94.675781 354.246094 94.539062 354.136719 94.441406 C 354.035156 94.34375 353.878906 94.292969 353.671875 94.292969 C 353.363281 94.292969 353.09375 94.40625 352.859375 94.628906 C 352.625 94.851562 352.453125 95.214844 352.347656 95.730469 L 351.925781 97.726562 L 351.351562 97.726562 L 351.90625 95.109375 C 351.925781 95.011719 351.9375 94.925781 351.9375 94.851562 C 351.9375 94.675781 351.882812 94.539062 351.78125 94.441406 C 351.675781 94.34375 351.519531 94.292969 351.308594 94.292969 C 351 94.292969 350.730469 94.402344 350.496094 94.617188 C 350.261719 94.832031 350.097656 95.183594 349.996094 95.671875 L 349.5625 97.726562 Z M 348.988281 97.726562 " fill-opacity="1" fill-rule="nonzero"/><g clip-path="url(#74816556b6)"><path fill="#a6a6a6" d="M 359.757812 92.613281 L 359.652344 93.105469 L 357.246094 93.105469 L 356.855469 94.972656 L 359.011719 94.972656 L 358.914062 95.46875 L 356.75 95.46875 L 356.269531 97.726562 L 355.667969 97.726562 L 356.75 92.613281 Z M 359.757812 92.613281 " fill-opacity="1" fill-rule="nonzero"/></g><path fill="#a6a6a6" d="M 360.992188 97.800781 C 360.761719 97.800781 360.546875 97.746094 360.351562 97.644531 C 360.160156 97.539062 360.007812 97.375 359.894531 97.160156 C 359.78125 96.945312 359.726562 96.679688 359.726562 96.359375 C 359.726562 96.144531 359.746094 95.925781 359.792969 95.703125 C 359.929688 95.070312 360.167969 94.59375 360.515625 94.273438 C 360.859375 93.957031 361.300781 93.796875 361.84375 93.796875 C 362.09375 93.796875 362.316406 93.855469 362.511719 93.96875 C 362.703125 94.082031 362.839844 94.242188 362.921875 94.449219 L 363 94.4375 L 363.125 93.871094 L 363.699219 93.871094 L 362.871094 97.726562 L 362.304688 97.726562 L 362.421875 97.160156 L 362.355469 97.148438 C 362.21875 97.359375 362.035156 97.519531 361.808594 97.632812 C 361.578125 97.746094 361.308594 97.800781 360.992188 97.800781 Z M 361.210938 97.289062 C 361.570312 97.289062 361.882812 97.167969 362.148438 96.921875 C 362.417969 96.675781 362.605469 96.300781 362.714844 95.796875 C 362.75 95.625 362.765625 95.46875 362.765625 95.324219 C 362.765625 95.003906 362.679688 94.75 362.515625 94.574219 C 362.355469 94.394531 362.132812 94.304688 361.851562 94.304688 C 361.074219 94.304688 360.582031 94.804688 360.371094 95.796875 C 360.335938 95.957031 360.320312 96.113281 360.320312 96.277344 C 360.320312 96.488281 360.359375 96.671875 360.433594 96.824219 C 360.507812 96.976562 360.609375 97.09375 360.746094 97.171875 C 360.882812 97.25 361.035156 97.289062 361.210938 97.289062 Z M 361.210938 97.289062 " fill-opacity="1" fill-rule="nonzero"/><g clip-path="url(#0c0efab263)"><path fill="#a6a6a6" d="M 364.214844 97.726562 L 365.039062 93.871094 L 365.578125 93.871094 L 365.453125 94.4375 L 365.527344 94.449219 C 365.644531 94.242188 365.8125 94.082031 366.03125 93.96875 C 366.257812 93.855469 366.5 93.796875 366.773438 93.796875 C 367.058594 93.796875 367.273438 93.859375 367.417969 93.980469 C 367.5625 94.105469 367.667969 94.277344 367.730469 94.511719 L 367.804688 94.511719 C 367.992188 94.273438 368.1875 94.097656 368.394531 93.976562 C 368.601562 93.855469 368.847656 93.796875 369.128906 93.796875 C 369.441406 93.796875 369.679688 93.875 369.851562 94.039062 C 370.019531 94.199219 370.105469 94.425781 370.105469 94.714844 C 370.105469 94.835938 370.09375 94.964844 370.066406 95.09375 L 369.507812 97.726562 L 368.941406 97.726562 L 369.496094 95.109375 C 369.515625 95.011719 369.527344 94.925781 369.527344 94.851562 C 369.527344 94.675781 369.472656 94.539062 369.363281 94.441406 C 369.261719 94.34375 369.105469 94.292969 368.898438 94.292969 C 368.589844 94.292969 368.320312 94.40625 368.085938 94.628906 C 367.851562 94.851562 367.679688 95.214844 367.574219 95.730469 L 367.152344 97.726562 L 366.578125 97.726562 L 367.132812 95.109375 C 367.152344 95.011719 367.164062 94.925781 367.164062 94.851562 C 367.164062 94.675781 367.109375 94.539062 367.007812 94.441406 C 366.90625 94.34375 366.746094 94.292969 366.535156 94.292969 C 366.226562 94.292969 365.957031 94.402344 365.722656 94.617188 C 365.488281 94.832031 365.324219 95.183594 365.222656 95.671875 L 364.789062 97.726562 Z M 364.214844 97.726562 " fill-opacity="1" fill-rule="nonzero"/></g><g clip-path="url(#c85e3e012e)"><path fill="#000000" d="M 176.945312 39.21875 L 190.09375 39.21875 L 190.09375 30.453125 L 176.945312 30.453125 Z M 176.945312 26.046875 L 190.09375 26.046875 L 190.09375 17.28125 L 176.945312 17.28125 Z M 194.476562 26.046875 L 194.476562 30.433594 L 198.882812 30.433594 L 198.882812 39.21875 L 194.476562 39.21875 L 194.476562 43.601562 L 168.15625 43.601562 L 168.15625 12.878906 L 194.476562 12.878906 L 194.476562 17.28125 L 198.882812 17.28125 L 198.882812 26.046875 Z M 194.476562 26.046875 " fill-opacity="1" fill-rule="nonzero"/></g><path fill="#000000" d="M 203.238281 47.988281 L 212.023438 47.988281 L 212.023438 39.21875 L 207.621094 39.21875 L 207.621094 30.453125 L 203.238281 30.453125 L 203.238281 21.664062 L 212.023438 21.664062 L 212.023438 30.453125 L 220.792969 30.453125 L 220.792969 21.664062 L 229.558594 21.664062 L 229.558594 30.453125 L 225.175781 30.453125 L 225.175781 39.21875 L 220.792969 39.21875 L 220.792969 47.988281 L 216.386719 47.988281 L 216.386719 52.390625 L 203.238281 52.390625 Z M 203.238281 47.988281 " fill-opacity="1" fill-rule="nonzero"/><g clip-path="url(#15da87564c)"><path fill="#000000" d="M 238.332031 43.601562 L 238.332031 39.21875 L 233.945312 39.21875 L 233.945312 26.046875 L 229.5625 26.046875 L 229.5625 21.664062 L 233.945312 21.664062 L 233.945312 12.878906 L 242.734375 12.878906 L 242.734375 21.664062 L 251.5 21.664062 L 251.5 26.046875 L 242.734375 26.046875 L 242.734375 39.21875 L 251.5 39.21875 L 251.5 43.601562 Z M 238.332031 43.601562 " fill-opacity="1" fill-rule="nonzero"/></g><path fill="#000000" d="M 264.667969 26.046875 L 264.667969 30.453125 L 273.453125 30.453125 L 273.453125 26.046875 Z M 264.667969 39.21875 L 282.199219 39.21875 L 282.199219 43.601562 L 260.261719 43.601562 L 260.261719 39.21875 L 255.878906 39.21875 L 255.878906 26.027344 L 260.261719 26.027344 L 260.261719 21.664062 L 277.816406 21.664062 L 277.816406 26.027344 L 282.199219 26.027344 L 282.199219 34.816406 L 264.667969 34.816406 Z M 264.667969 39.21875 " fill-opacity="1" fill-rule="nonzero"/><path fill="#000000" d="M 177.441406 81.394531 L 190.59375 81.394531 L 190.59375 72.628906 L 177.441406 72.628906 Z M 177.441406 68.222656 L 190.59375 68.222656 L 190.59375 59.457031 L 177.441406 59.457031 Z M 194.976562 68.222656 L 194.976562 72.609375 L 199.382812 72.609375 L 199.382812 81.394531 L 194.976562 81.394531 L 194.976562 85.777344 L 168.65625 85.777344 L 168.65625 55.054688 L 194.976562 55.054688 L 194.976562 59.457031 L 199.382812 59.457031 L 199.382812 68.222656 Z M 194.976562 68.222656 " fill-opacity="1" fill-rule="nonzero"/><path fill="#000000" d="M 203.734375 81.394531 L 203.734375 63.839844 L 212.523438 63.839844 L 212.523438 81.394531 L 221.289062 81.394531 L 221.289062 63.839844 L 230.058594 63.839844 L 230.058594 85.777344 L 208.117188 85.777344 L 208.117188 81.394531 Z M 203.734375 81.394531 " fill-opacity="1" fill-rule="nonzero"/><path fill="#000000" d="M 234.445312 55.054688 L 243.234375 55.054688 L 243.234375 59.457031 L 234.445312 59.457031 Z M 234.445312 63.839844 L 243.234375 63.839844 L 243.234375 85.777344 L 234.445312 85.777344 Z M 234.445312 63.839844 " fill-opacity="1" fill-rule="nonzero"/><path fill="#000000" d="M 247.59375 55.054688 L 256.382812 55.054688 L 256.382812 85.777344 L 247.59375 85.777344 Z M 247.59375 55.054688 " fill-opacity="1" fill-rule="nonzero"/><path fill="#000000" d="M 269.53125 68.222656 L 269.53125 81.394531 L 278.320312 81.394531 L 278.320312 68.222656 Z M 265.128906 81.394531 L 260.746094 81.394531 L 260.746094 68.222656 L 265.128906 68.222656 L 265.128906 63.839844 L 278.300781 63.839844 L 278.300781 55.054688 L 287.066406 55.054688 L 287.066406 85.777344 L 265.128906 85.777344 Z M 265.128906 81.394531 " fill-opacity="1" fill-rule="nonzero"/><path fill="#000000" d="M 300.246094 68.222656 L 300.246094 72.628906 L 309.03125 72.628906 L 309.03125 68.222656 Z M 300.246094 81.394531 L 317.777344 81.394531 L 317.777344 85.777344 L 295.839844 85.777344 L 295.839844 81.394531 L 291.457031 81.394531 L 291.457031 68.203125 L 295.839844 68.203125 L 295.839844 63.839844 L 313.394531 63.839844 L 313.394531 68.203125 L 317.777344 68.203125 L 317.777344 76.992188 L 300.246094 76.992188 Z M 300.246094 81.394531 " fill-opacity="1" fill-rule="nonzero"/><path fill="#000000" d="M 322.167969 63.839844 L 344.105469 63.839844 L 344.105469 68.222656 L 335.316406 68.222656 L 335.316406 72.628906 L 330.957031 72.628906 L 330.957031 85.777344 L 322.167969 85.777344 Z M 322.167969 63.839844 " fill-opacity="1" fill-rule="nonzero"/><path fill="#000000" d="M 366.035156 76.992188 L 370.417969 76.992188 L 370.417969 81.394531 L 366.035156 81.394531 L 366.035156 85.777344 L 344.097656 85.777344 L 344.097656 81.394531 L 361.652344 81.394531 L 361.652344 76.992188 L 348.480469 76.992188 L 348.480469 72.609375 L 344.097656 72.609375 L 344.097656 68.222656 L 348.480469 68.222656 L 348.480469 63.839844 L 370.417969 63.839844 L 370.417969 68.222656 L 352.886719 68.222656 L 352.886719 72.609375 L 366.035156 72.609375 Z M 366.035156 76.992188 " fill-opacity="1" fill-rule="nonzero"/></svg>