<svg xmlns="http://www.w3.org/2000/svg" xmlns:xlink="http://www.w3.org/1999/xlink" width="500" zoomAndPan="magnify" viewBox="0 0 375 127.500001" height="170" preserveAspectRatio="xMidYMid meet" version="1.0"><defs><clipPath id="40da2fd96e"><path d="M 350 82 L 370.933594 82 L 370.933594 100 L 350 100 Z M 350 82 " clip-rule="nonzero"/></clipPath><clipPath id="d49d84787d"><path d="M 334 103.363281 L 339 103.363281 L 339 109 L 334 109 Z M 334 103.363281 " clip-rule="nonzero"/></clipPath><clipPath id="bf11b0902e"><path d="M 337 105 L 343 105 L 343 110.640625 L 337 110.640625 Z M 337 105 " clip-rule="nonzero"/></clipPath><clipPath id="37231b4164"><path d="M 366 105 L 371.878906 105 L 371.878906 109 L 366 109 Z M 366 105 " clip-rule="nonzero"/></clipPath><clipPath id="d808b46dcb"><path d="M 99.332031 2.636719 L 190.703125 2.636719 L 190.703125 124.734375 L 99.332031 124.734375 Z M 99.332031 2.636719 " clip-rule="nonzero"/></clipPath><clipPath id="f1d13e4d66"><path d="M 4 2 L 95 2 L 95 124.839844 L 4 124.839844 Z M 4 2 " clip-rule="nonzero"/></clipPath></defs><path fill="#000000" d="M 219.28125 48.484375 L 229.601562 48.484375 L 229.601562 41.601562 L 219.28125 41.601562 Z M 219.28125 38.144531 L 229.601562 38.144531 L 229.601562 31.265625 L 219.28125 31.265625 Z M 233.042969 38.144531 L 233.042969 41.585938 L 236.5 41.585938 L 236.5 48.484375 L 233.042969 48.484375 L 233.042969 51.925781 L 212.382812 51.925781 L 212.382812 27.808594 L 233.042969 27.808594 L 233.042969 31.265625 L 236.5 31.265625 L 236.5 38.144531 Z M 233.042969 38.144531 " fill-opacity="1" fill-rule="nonzero"/><path fill="#000000" d="M 239.917969 55.363281 L 246.816406 55.363281 L 246.816406 48.484375 L 243.359375 48.484375 L 243.359375 41.601562 L 239.917969 41.601562 L 239.917969 34.703125 L 246.816406 34.703125 L 246.816406 41.601562 L 253.695312 41.601562 L 253.695312 34.703125 L 260.578125 34.703125 L 260.578125 41.601562 L 257.136719 41.601562 L 257.136719 48.484375 L 253.695312 48.484375 L 253.695312 55.363281 L 250.238281 55.363281 L 250.238281 58.820312 L 239.917969 58.820312 Z M 239.917969 55.363281 " fill-opacity="1" fill-rule="nonzero"/><path fill="#000000" d="M 267.464844 51.925781 L 267.464844 48.484375 L 264.023438 48.484375 L 264.023438 38.144531 L 260.582031 38.144531 L 260.582031 34.703125 L 264.023438 34.703125 L 264.023438 27.808594 L 270.921875 27.808594 L 270.921875 34.703125 L 277.800781 34.703125 L 277.800781 38.144531 L 270.921875 38.144531 L 270.921875 48.484375 L 277.800781 48.484375 L 277.800781 51.925781 Z M 267.464844 51.925781 " fill-opacity="1" fill-rule="nonzero"/><path fill="#000000" d="M 288.132812 38.144531 L 288.132812 41.601562 L 295.03125 41.601562 L 295.03125 38.144531 Z M 288.132812 48.484375 L 301.898438 48.484375 L 301.898438 51.925781 L 284.675781 51.925781 L 284.675781 48.484375 L 281.238281 48.484375 L 281.238281 38.128906 L 284.675781 38.128906 L 284.675781 34.703125 L 298.457031 34.703125 L 298.457031 38.128906 L 301.898438 38.128906 L 301.898438 45.027344 L 288.132812 45.027344 Z M 288.132812 48.484375 " fill-opacity="1" fill-rule="nonzero"/><path fill="#000000" d="M 219.28125 96.230469 L 229.601562 96.230469 L 229.601562 89.347656 L 219.28125 89.347656 Z M 219.28125 85.890625 L 229.601562 85.890625 L 229.601562 79.007812 L 219.28125 79.007812 Z M 233.042969 85.890625 L 233.042969 89.332031 L 236.5 89.332031 L 236.5 96.230469 L 233.042969 96.230469 L 233.042969 99.667969 L 212.382812 99.667969 L 212.382812 75.550781 L 233.042969 75.550781 L 233.042969 79.007812 L 236.5 79.007812 L 236.5 85.890625 Z M 233.042969 85.890625 " fill-opacity="1" fill-rule="nonzero"/><path fill="#000000" d="M 239.917969 96.230469 L 239.917969 82.449219 L 246.816406 82.449219 L 246.816406 96.230469 L 253.695312 96.230469 L 253.695312 82.449219 L 260.578125 82.449219 L 260.578125 99.667969 L 243.359375 99.667969 L 243.359375 96.230469 Z M 239.917969 96.230469 " fill-opacity="1" fill-rule="nonzero"/><path fill="#000000" d="M 264.023438 75.550781 L 270.921875 75.550781 L 270.921875 79.007812 L 264.023438 79.007812 Z M 264.023438 82.449219 L 270.921875 82.449219 L 270.921875 99.667969 L 264.023438 99.667969 Z M 264.023438 82.449219 " fill-opacity="1" fill-rule="nonzero"/><path fill="#000000" d="M 274.34375 75.550781 L 281.242188 75.550781 L 281.242188 99.667969 L 274.34375 99.667969 Z M 274.34375 75.550781 " fill-opacity="1" fill-rule="nonzero"/><path fill="#000000" d="M 291.5625 85.890625 L 291.5625 96.230469 L 298.460938 96.230469 L 298.460938 85.890625 Z M 288.105469 96.230469 L 284.664062 96.230469 L 284.664062 85.890625 L 288.105469 85.890625 L 288.105469 82.449219 L 298.445312 82.449219 L 298.445312 75.550781 L 305.324219 75.550781 L 305.324219 99.667969 L 288.105469 99.667969 Z M 288.105469 96.230469 " fill-opacity="1" fill-rule="nonzero"/><path fill="#000000" d="M 315.667969 85.890625 L 315.667969 89.347656 L 322.566406 89.347656 L 322.566406 85.890625 Z M 315.667969 96.230469 L 329.433594 96.230469 L 329.433594 99.667969 L 312.210938 99.667969 L 312.210938 96.230469 L 308.769531 96.230469 L 308.769531 85.875 L 312.210938 85.875 L 312.210938 82.449219 L 325.992188 82.449219 L 325.992188 85.875 L 329.433594 85.875 L 329.433594 92.773438 L 315.667969 92.773438 Z M 315.667969 96.230469 " fill-opacity="1" fill-rule="nonzero"/><path fill="#000000" d="M 332.875 82.449219 L 350.097656 82.449219 L 350.097656 85.890625 L 343.199219 85.890625 L 343.199219 89.347656 L 339.773438 89.347656 L 339.773438 99.667969 L 332.875 99.667969 Z M 332.875 82.449219 " fill-opacity="1" fill-rule="nonzero"/><g clip-path="url(#40da2fd96e)"><path fill="#000000" d="M 367.308594 92.773438 L 370.75 92.773438 L 370.75 96.230469 L 367.308594 96.230469 L 367.308594 99.667969 L 350.089844 99.667969 L 350.089844 96.230469 L 363.871094 96.230469 L 363.871094 92.773438 L 353.53125 92.773438 L 353.53125 89.332031 L 350.089844 89.332031 L 350.089844 85.890625 L 353.53125 85.890625 L 353.53125 82.449219 L 370.75 82.449219 L 370.75 85.890625 L 356.988281 85.890625 L 356.988281 89.332031 L 367.308594 89.332031 Z M 367.308594 92.773438 " fill-opacity="1" fill-rule="nonzero"/></g><g clip-path="url(#d49d84787d)"><path fill="#a6a6a6" d="M 336.109375 108.875 C 335.847656 108.875 335.628906 108.820312 335.457031 108.707031 C 335.285156 108.597656 335.160156 108.457031 335.089844 108.285156 L 335.019531 108.296875 L 334.90625 108.804688 L 334.378906 108.804688 L 335.4375 103.824219 L 335.964844 103.824219 L 335.546875 105.78125 L 335.609375 105.796875 C 335.898438 105.390625 336.308594 105.1875 336.847656 105.1875 C 337.074219 105.1875 337.273438 105.238281 337.453125 105.347656 C 337.636719 105.449219 337.78125 105.601562 337.882812 105.804688 C 337.992188 106.007812 338.042969 106.246094 338.042969 106.519531 C 338.042969 106.679688 338.023438 106.851562 337.988281 107.03125 C 337.851562 107.667969 337.628906 108.136719 337.3125 108.433594 C 336.992188 108.726562 336.59375 108.875 336.109375 108.875 Z M 336.082031 108.40625 C 336.441406 108.40625 336.734375 108.296875 336.949219 108.082031 C 337.171875 107.867188 337.335938 107.515625 337.4375 107.03125 C 337.480469 106.835938 337.5 106.660156 337.5 106.503906 C 337.5 105.9375 337.222656 105.65625 336.671875 105.65625 C 336.332031 105.65625 336.042969 105.769531 335.800781 106 C 335.554688 106.226562 335.382812 106.570312 335.285156 107.03125 C 335.246094 107.210938 335.226562 107.371094 335.226562 107.511719 C 335.226562 107.8125 335.300781 108.039062 335.449219 108.1875 C 335.601562 108.332031 335.8125 108.40625 336.082031 108.40625 Z M 336.082031 108.40625 " fill-opacity="1" fill-rule="nonzero"/></g><g clip-path="url(#bf11b0902e)"><path fill="#a6a6a6" d="M 338.386719 110.3125 C 338.273438 110.3125 338.167969 110.296875 338.066406 110.273438 C 337.96875 110.25 337.882812 110.214844 337.808594 110.175781 L 337.992188 109.761719 L 338.054688 109.738281 C 338.097656 109.773438 338.15625 109.800781 338.230469 109.820312 C 338.308594 109.84375 338.386719 109.855469 338.46875 109.855469 C 338.605469 109.855469 338.726562 109.832031 338.828125 109.796875 C 338.929688 109.757812 339.023438 109.695312 339.109375 109.605469 C 339.191406 109.519531 339.28125 109.394531 339.378906 109.234375 L 339.589844 108.890625 L 338.925781 105.253906 L 339.464844 105.253906 L 339.96875 108.152344 L 340.03125 108.152344 L 341.703125 105.253906 L 342.296875 105.253906 L 339.859375 109.378906 C 339.722656 109.609375 339.582031 109.792969 339.445312 109.929688 C 339.308594 110.066406 339.15625 110.164062 338.988281 110.21875 C 338.824219 110.28125 338.621094 110.3125 338.386719 110.3125 Z M 338.386719 110.3125 " fill-opacity="1" fill-rule="nonzero"/></g><path fill="#a6a6a6" d="M 344.074219 108.804688 L 345.070312 104.097656 L 346.859375 104.097656 C 347.097656 104.097656 347.300781 104.136719 347.46875 104.21875 C 347.640625 104.296875 347.769531 104.402344 347.859375 104.542969 C 347.949219 104.683594 347.992188 104.835938 347.992188 105.007812 C 347.992188 105.082031 347.980469 105.15625 347.964844 105.238281 C 347.90625 105.496094 347.808594 105.703125 347.671875 105.855469 C 347.535156 106.007812 347.351562 106.117188 347.121094 106.183594 L 347.105469 106.246094 C 347.324219 106.3125 347.5 106.429688 347.632812 106.59375 C 347.761719 106.753906 347.824219 106.960938 347.824219 107.207031 C 347.824219 107.320312 347.8125 107.429688 347.792969 107.535156 C 347.703125 107.945312 347.519531 108.261719 347.234375 108.480469 C 346.957031 108.695312 346.542969 108.804688 345.992188 108.804688 Z M 346.410156 106.074219 C 346.582031 106.074219 346.734375 106.042969 346.871094 105.980469 C 347.007812 105.921875 347.117188 105.839844 347.207031 105.734375 C 347.292969 105.628906 347.351562 105.507812 347.382812 105.367188 C 347.402344 105.285156 347.414062 105.207031 347.414062 105.132812 C 347.414062 104.949219 347.355469 104.804688 347.242188 104.703125 C 347.125 104.601562 346.957031 104.550781 346.738281 104.550781 L 345.527344 104.550781 L 345.207031 106.074219 Z M 346.050781 108.347656 C 346.71875 108.347656 347.117188 108.042969 347.246094 107.4375 C 347.265625 107.347656 347.277344 107.269531 347.277344 107.203125 C 347.277344 106.988281 347.203125 106.824219 347.058594 106.710938 C 346.914062 106.59375 346.703125 106.53125 346.433594 106.53125 L 345.109375 106.53125 L 344.726562 108.347656 Z M 346.050781 108.347656 " fill-opacity="1" fill-rule="nonzero"/><path fill="#a6a6a6" d="M 349.667969 108.875 C 349.460938 108.875 349.285156 108.832031 349.136719 108.75 C 348.988281 108.664062 348.875 108.546875 348.796875 108.398438 C 348.722656 108.25 348.683594 108.078125 348.683594 107.882812 C 348.683594 107.769531 348.695312 107.652344 348.722656 107.527344 L 349.207031 105.253906 L 349.730469 105.253906 L 349.234375 107.609375 C 349.21875 107.675781 349.210938 107.75 349.210938 107.820312 C 349.210938 108.003906 349.265625 108.148438 349.378906 108.253906 C 349.488281 108.363281 349.640625 108.417969 349.835938 108.417969 C 350.15625 108.417969 350.429688 108.3125 350.652344 108.101562 C 350.882812 107.890625 351.046875 107.550781 351.148438 107.074219 L 351.535156 105.253906 L 352.0625 105.253906 L 351.308594 108.804688 L 350.808594 108.804688 L 350.929688 108.25 L 350.867188 108.234375 C 350.71875 108.453125 350.558594 108.617188 350.375 108.71875 C 350.191406 108.824219 349.957031 108.875 349.667969 108.875 Z M 349.667969 108.875 " fill-opacity="1" fill-rule="nonzero"/><path fill="#a6a6a6" d="M 352.539062 108.804688 L 353.296875 105.253906 L 353.796875 105.253906 L 353.679688 105.777344 L 353.75 105.789062 C 353.855469 105.597656 354.011719 105.449219 354.214844 105.347656 C 354.417969 105.238281 354.644531 105.1875 354.894531 105.1875 C 355.160156 105.1875 355.355469 105.242188 355.492188 105.359375 C 355.625 105.46875 355.71875 105.632812 355.777344 105.84375 L 355.84375 105.84375 C 356.015625 105.625 356.199219 105.464844 356.390625 105.351562 C 356.578125 105.242188 356.804688 105.1875 357.066406 105.1875 C 357.351562 105.1875 357.574219 105.261719 357.730469 105.410156 C 357.886719 105.558594 357.964844 105.765625 357.964844 106.035156 C 357.964844 106.144531 357.953125 106.261719 357.929688 106.382812 L 357.414062 108.804688 L 356.894531 108.804688 L 357.402344 106.394531 C 357.421875 106.308594 357.433594 106.226562 357.433594 106.160156 C 357.433594 105.996094 357.382812 105.871094 357.28125 105.78125 C 357.1875 105.691406 357.042969 105.644531 356.855469 105.644531 C 356.570312 105.644531 356.320312 105.746094 356.101562 105.953125 C 355.886719 106.15625 355.730469 106.496094 355.632812 106.96875 L 355.242188 108.804688 L 354.71875 108.804688 L 355.226562 106.394531 C 355.246094 106.308594 355.253906 106.226562 355.253906 106.160156 C 355.253906 105.996094 355.207031 105.871094 355.113281 105.78125 C 355.015625 105.691406 354.871094 105.644531 354.675781 105.644531 C 354.394531 105.644531 354.144531 105.746094 353.925781 105.941406 C 353.710938 106.140625 353.558594 106.464844 353.46875 106.914062 L 353.066406 108.804688 Z M 352.539062 108.804688 " fill-opacity="1" fill-rule="nonzero"/><path fill="#a6a6a6" d="M 362.460938 104.097656 L 362.363281 104.550781 L 360.144531 104.550781 L 359.785156 106.269531 L 361.773438 106.269531 L 361.679688 106.726562 L 359.6875 106.726562 L 359.246094 108.804688 L 358.691406 108.804688 L 359.6875 104.097656 Z M 362.460938 104.097656 " fill-opacity="1" fill-rule="nonzero"/><path fill="#a6a6a6" d="M 363.597656 108.875 C 363.382812 108.875 363.1875 108.824219 363.007812 108.730469 C 362.832031 108.632812 362.6875 108.484375 362.582031 108.285156 C 362.480469 108.085938 362.429688 107.839844 362.429688 107.546875 C 362.429688 107.347656 362.449219 107.148438 362.492188 106.945312 C 362.617188 106.359375 362.839844 105.921875 363.15625 105.625 C 363.472656 105.332031 363.878906 105.1875 364.382812 105.1875 C 364.609375 105.1875 364.8125 105.238281 364.996094 105.347656 C 365.171875 105.449219 365.300781 105.597656 365.371094 105.789062 L 365.445312 105.777344 L 365.5625 105.253906 L 366.089844 105.253906 L 365.328125 108.804688 L 364.804688 108.804688 L 364.914062 108.285156 L 364.851562 108.273438 C 364.726562 108.46875 364.554688 108.617188 364.347656 108.71875 C 364.136719 108.824219 363.886719 108.875 363.597656 108.875 Z M 363.796875 108.40625 C 364.128906 108.40625 364.417969 108.292969 364.664062 108.066406 C 364.910156 107.835938 365.082031 107.492188 365.183594 107.03125 C 365.214844 106.871094 365.230469 106.726562 365.230469 106.59375 C 365.230469 106.296875 365.152344 106.066406 365 105.902344 C 364.851562 105.738281 364.644531 105.65625 364.386719 105.65625 C 363.671875 105.65625 363.21875 106.113281 363.023438 107.03125 C 362.992188 107.175781 362.976562 107.320312 362.976562 107.472656 C 362.976562 107.664062 363.011719 107.835938 363.082031 107.976562 C 363.148438 108.117188 363.246094 108.222656 363.367188 108.296875 C 363.492188 108.367188 363.636719 108.40625 363.796875 108.40625 Z M 363.796875 108.40625 " fill-opacity="1" fill-rule="nonzero"/><g clip-path="url(#37231b4164)"><path fill="#a6a6a6" d="M 366.566406 108.804688 L 367.320312 105.253906 L 367.820312 105.253906 L 367.707031 105.777344 L 367.773438 105.789062 C 367.878906 105.597656 368.035156 105.449219 368.238281 105.347656 C 368.445312 105.238281 368.671875 105.1875 368.917969 105.1875 C 369.183594 105.1875 369.378906 105.242188 369.515625 105.359375 C 369.648438 105.46875 369.746094 105.632812 369.800781 105.84375 L 369.871094 105.84375 C 370.042969 105.625 370.222656 105.464844 370.414062 105.351562 C 370.605469 105.242188 370.828125 105.1875 371.089844 105.1875 C 371.375 105.1875 371.597656 105.261719 371.753906 105.410156 C 371.910156 105.558594 371.988281 105.765625 371.988281 106.035156 C 371.988281 106.144531 371.976562 106.261719 371.957031 106.382812 L 371.441406 108.804688 L 370.917969 108.804688 L 371.429688 106.394531 C 371.445312 106.308594 371.457031 106.226562 371.457031 106.160156 C 371.457031 105.996094 371.40625 105.871094 371.308594 105.78125 C 371.210938 105.691406 371.070312 105.644531 370.878906 105.644531 C 370.59375 105.644531 370.347656 105.746094 370.128906 105.953125 C 369.914062 106.15625 369.757812 106.496094 369.660156 106.96875 L 369.269531 108.804688 L 368.742188 108.804688 L 369.25 106.394531 C 369.269531 106.308594 369.28125 106.226562 369.28125 106.160156 C 369.28125 105.996094 369.230469 105.871094 369.136719 105.78125 C 369.042969 105.691406 368.898438 105.644531 368.703125 105.644531 C 368.417969 105.644531 368.167969 105.746094 367.953125 105.941406 C 367.738281 106.140625 367.585938 106.464844 367.492188 106.914062 L 367.09375 108.804688 Z M 366.566406 108.804688 " fill-opacity="1" fill-rule="nonzero"/></g><g clip-path="url(#d808b46dcb)"><path fill="#fb802a" d="M 99.953125 124.136719 L 99.953125 2.863281 L 148.636719 2.863281 C 161.226562 2.863281 170.839844 5.78125 177.476562 11.613281 C 184.121094 17.4375 187.449219 24.914062 187.449219 34.050781 C 187.449219 41.667969 185.394531 47.757812 181.292969 52.324219 C 177.183594 56.878906 172.1875 59.96875 166.300781 61.585938 C 173.234375 62.972656 178.949219 66.414062 183.453125 71.902344 C 187.964844 77.382812 190.222656 83.765625 190.222656 91.035156 C 190.222656 100.636719 186.753906 108.550781 179.820312 114.792969 C 172.886719 121.023438 163.070312 124.136719 150.371094 124.136719 Z M 122.125 53.792969 L 145.335938 53.792969 C 151.574219 53.792969 156.367188 52.351562 159.714844 49.46875 C 163.070312 46.574219 164.75 42.476562 164.75 37.167969 C 164.75 32.085938 163.101562 28.070312 159.8125 25.117188 C 156.519531 22.171875 151.578125 20.695312 144.988281 20.695312 L 122.125 20.695312 Z M 122.125 106.125 L 146.902344 106.125 C 153.480469 106.125 158.589844 104.597656 162.222656 101.535156 C 165.863281 98.464844 167.6875 94.164062 167.6875 88.625 C 167.6875 82.960938 165.78125 78.515625 161.976562 75.289062 C 158.167969 72.050781 153.027344 70.433594 146.558594 70.433594 L 122.125 70.433594 Z M 122.125 106.125 " fill-opacity="1" fill-rule="nonzero"/></g><g clip-path="url(#f1d13e4d66)"><path fill="#05a2e5" d="M 94.53125 124.25 L 94.53125 2.730469 L 45.746094 2.730469 C 33.132812 2.730469 23.496094 5.65625 16.847656 11.496094 C 10.1875 17.332031 6.855469 24.828125 6.855469 33.980469 C 6.855469 41.613281 8.914062 47.71875 13.023438 52.292969 C 17.140625 56.855469 22.148438 59.949219 28.046875 61.570312 C 21.097656 62.960938 15.371094 66.410156 10.859375 71.910156 C 6.339844 77.402344 4.074219 83.796875 4.074219 91.082031 C 4.074219 100.703125 7.550781 108.632812 14.496094 114.886719 C 21.445312 121.132812 31.285156 124.25 44.007812 124.25 Z M 72.3125 53.761719 L 49.054688 53.761719 C 42.800781 53.761719 38 52.320312 34.644531 49.429688 C 31.285156 46.53125 29.601562 42.421875 29.601562 37.105469 C 29.601562 32.011719 31.25 27.988281 34.546875 25.03125 C 37.847656 22.078125 42.796875 20.597656 49.402344 20.597656 L 72.3125 20.597656 Z M 72.3125 106.203125 L 47.484375 106.203125 C 40.890625 106.203125 35.769531 104.671875 32.132812 101.605469 C 28.484375 98.527344 26.65625 94.21875 26.65625 88.667969 C 26.65625 82.988281 28.566406 78.535156 32.378906 75.300781 C 36.195312 72.058594 41.347656 70.4375 47.832031 70.4375 L 72.3125 70.4375 Z M 72.3125 106.203125 " fill-opacity="1" fill-rule="nonzero"/></g></svg>