<svg xmlns="http://www.w3.org/2000/svg" xmlns:xlink="http://www.w3.org/1999/xlink" width="500" zoomAndPan="magnify" viewBox="0 0 375 284.999983" height="380" preserveAspectRatio="xMidYMid meet" version="1.0"><defs><clipPath id="fdb1770792"><path d="M 310 249 L 334.835938 249 L 334.835938 269 L 310 269 Z M 310 249 " clip-rule="nonzero"/></clipPath><clipPath id="e2828930df"><path d="M 296 274 L 302 274 L 302 280.707031 L 296 280.707031 Z M 296 274 " clip-rule="nonzero"/></clipPath><clipPath id="b2fb33c6c9"><path d="M 328 274 L 334.96875 274 L 334.96875 279 L 328 279 Z M 328 274 " clip-rule="nonzero"/></clipPath></defs><path fill="#fb802a" d="M 190.625 236.140625 L 190.625 6.164062 L 282.949219 6.164062 C 306.820312 6.164062 325.054688 11.695312 337.640625 22.753906 C 350.242188 33.796875 356.550781 47.980469 356.550781 65.300781 C 356.550781 79.75 352.652344 91.300781 344.871094 99.957031 C 337.085938 108.597656 327.605469 114.453125 316.445312 117.519531 C 329.59375 120.148438 340.433594 126.675781 348.972656 137.085938 C 357.527344 147.480469 361.808594 159.582031 361.808594 173.371094 C 361.808594 191.578125 355.234375 206.589844 342.085938 218.421875 C 328.9375 230.238281 310.316406 236.140625 286.234375 236.140625 Z M 232.667969 102.742188 L 276.6875 102.742188 C 288.519531 102.742188 297.605469 100.011719 303.953125 94.542969 C 310.316406 89.054688 313.503906 81.28125 313.503906 71.21875 C 313.503906 61.574219 310.378906 53.960938 304.140625 48.363281 C 297.898438 42.777344 288.527344 39.972656 276.027344 39.972656 L 232.667969 39.972656 Z M 232.667969 201.984375 L 279.660156 201.984375 C 292.136719 201.984375 301.824219 199.089844 308.714844 193.28125 C 315.617188 187.460938 319.074219 179.304688 319.074219 168.800781 C 319.074219 158.054688 315.460938 149.625 308.242188 143.503906 C 301.019531 137.367188 291.277344 134.300781 279.003906 134.300781 L 232.667969 134.300781 Z M 232.667969 201.984375 " fill-opacity="1" fill-rule="nonzero"/><path fill="#05a2e5" d="M 184.945312 236.203125 L 184.945312 6.007812 L 92.535156 6.007812 C 68.640625 6.007812 50.386719 11.546875 37.789062 22.617188 C 25.175781 33.667969 18.863281 47.863281 18.863281 65.199219 C 18.863281 79.664062 22.765625 91.226562 30.550781 99.890625 C 38.34375 108.539062 47.832031 114.398438 59.003906 117.46875 C 45.84375 120.101562 34.992188 126.636719 26.445312 137.054688 C 17.882812 147.457031 13.597656 159.570312 13.597656 173.371094 C 13.597656 191.59375 20.179688 206.621094 33.339844 218.464844 C 46.5 230.292969 65.136719 236.203125 89.242188 236.203125 Z M 142.859375 102.679688 L 98.800781 102.679688 C 86.957031 102.679688 77.859375 99.945312 71.507812 94.46875 C 65.136719 88.976562 61.949219 81.199219 61.949219 71.125 C 61.949219 61.472656 65.074219 53.847656 71.320312 48.25 C 77.570312 42.65625 86.949219 39.851562 99.457031 39.851562 L 142.859375 39.851562 Z M 142.859375 202.015625 L 95.824219 202.015625 C 83.335938 202.015625 73.636719 199.117188 66.742188 193.300781 C 59.835938 187.472656 56.371094 179.3125 56.371094 168.796875 C 56.371094 158.042969 59.992188 149.605469 67.214844 143.476562 C 74.445312 137.335938 84.199219 134.265625 96.480469 134.265625 L 142.859375 134.265625 Z M 142.859375 202.015625 " fill-opacity="1" fill-rule="nonzero"/><path fill="#000000" d="M 47.832031 264.5625 L 59.523438 264.5625 L 59.523438 256.769531 L 47.832031 256.769531 Z M 47.832031 252.855469 L 59.523438 252.855469 L 59.523438 245.0625 L 47.832031 245.0625 Z M 63.421875 252.855469 L 63.421875 256.75 L 67.335938 256.75 L 67.335938 264.5625 L 63.421875 264.5625 L 63.421875 268.460938 L 40.023438 268.460938 L 40.023438 241.148438 L 63.421875 241.148438 L 63.421875 245.0625 L 67.335938 245.0625 L 67.335938 252.855469 Z M 63.421875 252.855469 " fill-opacity="1" fill-rule="nonzero"/><path fill="#000000" d="M 71.207031 272.355469 L 79.015625 272.355469 L 79.015625 264.5625 L 75.101562 264.5625 L 75.101562 256.769531 L 71.207031 256.769531 L 71.207031 248.957031 L 79.015625 248.957031 L 79.015625 256.769531 L 86.8125 256.769531 L 86.8125 248.957031 L 94.605469 248.957031 L 94.605469 256.769531 L 90.707031 256.769531 L 90.707031 264.5625 L 86.8125 264.5625 L 86.8125 272.355469 L 82.894531 272.355469 L 82.894531 276.273438 L 71.207031 276.273438 Z M 71.207031 272.355469 " fill-opacity="1" fill-rule="nonzero"/><path fill="#000000" d="M 102.402344 268.460938 L 102.402344 264.5625 L 98.503906 264.5625 L 98.503906 252.855469 L 94.609375 252.855469 L 94.609375 248.957031 L 98.503906 248.957031 L 98.503906 241.148438 L 106.316406 241.148438 L 106.316406 248.957031 L 114.109375 248.957031 L 114.109375 252.855469 L 106.316406 252.855469 L 106.316406 264.5625 L 114.109375 264.5625 L 114.109375 268.460938 Z M 102.402344 268.460938 " fill-opacity="1" fill-rule="nonzero"/><path fill="#000000" d="M 125.8125 252.855469 L 125.8125 256.769531 L 133.625 256.769531 L 133.625 252.855469 Z M 125.8125 264.5625 L 141.398438 264.5625 L 141.398438 268.460938 L 121.898438 268.460938 L 121.898438 264.5625 L 118 264.5625 L 118 252.835938 L 121.898438 252.835938 L 121.898438 248.957031 L 137.503906 248.957031 L 137.503906 252.835938 L 141.398438 252.835938 L 141.398438 260.648438 L 125.8125 260.648438 Z M 125.8125 264.5625 " fill-opacity="1" fill-rule="nonzero"/><path fill="#000000" d="M 162.578125 265.042969 L 174.285156 265.042969 L 174.285156 257.234375 L 162.578125 257.234375 Z M 162.578125 253.3125 L 174.285156 253.3125 L 174.285156 245.507812 L 162.578125 245.507812 Z M 178.1875 253.3125 L 178.1875 257.21875 L 182.109375 257.21875 L 182.109375 265.042969 L 178.1875 265.042969 L 178.1875 268.945312 L 154.753906 268.945312 L 154.753906 241.585938 L 178.1875 241.585938 L 178.1875 245.507812 L 182.109375 245.507812 L 182.109375 253.3125 Z M 178.1875 253.3125 " fill-opacity="1" fill-rule="nonzero"/><path fill="#000000" d="M 185.984375 265.042969 L 185.984375 249.410156 L 193.808594 249.410156 L 193.808594 265.042969 L 201.617188 265.042969 L 201.617188 249.410156 L 209.421875 249.410156 L 209.421875 268.945312 L 189.886719 268.945312 L 189.886719 265.042969 Z M 185.984375 265.042969 " fill-opacity="1" fill-rule="nonzero"/><path fill="#000000" d="M 213.328125 241.585938 L 221.152344 241.585938 L 221.152344 245.507812 L 213.328125 245.507812 Z M 213.328125 249.410156 L 221.152344 249.410156 L 221.152344 268.945312 L 213.328125 268.945312 Z M 213.328125 249.410156 " fill-opacity="1" fill-rule="nonzero"/><path fill="#000000" d="M 225.035156 241.585938 L 232.859375 241.585938 L 232.859375 268.945312 L 225.035156 268.945312 Z M 225.035156 241.585938 " fill-opacity="1" fill-rule="nonzero"/><path fill="#000000" d="M 244.570312 253.3125 L 244.570312 265.042969 L 252.390625 265.042969 L 252.390625 253.3125 Z M 240.648438 265.042969 L 236.746094 265.042969 L 236.746094 253.3125 L 240.648438 253.3125 L 240.648438 249.410156 L 252.375 249.410156 L 252.375 241.585938 L 260.179688 241.585938 L 260.179688 268.945312 L 240.648438 268.945312 Z M 240.648438 265.042969 " fill-opacity="1" fill-rule="nonzero"/><path fill="#000000" d="M 271.914062 253.3125 L 271.914062 257.234375 L 279.738281 257.234375 L 279.738281 253.3125 Z M 271.914062 265.042969 L 287.523438 265.042969 L 287.523438 268.945312 L 267.992188 268.945312 L 267.992188 265.042969 L 264.089844 265.042969 L 264.089844 253.296875 L 267.992188 253.296875 L 267.992188 249.410156 L 283.621094 249.410156 L 283.621094 253.296875 L 287.523438 253.296875 L 287.523438 261.121094 L 271.914062 261.121094 Z M 271.914062 265.042969 " fill-opacity="1" fill-rule="nonzero"/><path fill="#000000" d="M 291.433594 249.410156 L 310.964844 249.410156 L 310.964844 253.3125 L 303.140625 253.3125 L 303.140625 257.234375 L 299.257812 257.234375 L 299.257812 268.945312 L 291.433594 268.945312 Z M 291.433594 249.410156 " fill-opacity="1" fill-rule="nonzero"/><g clip-path="url(#fdb1770792)"><path fill="#000000" d="M 330.488281 261.121094 L 334.394531 261.121094 L 334.394531 265.042969 L 330.488281 265.042969 L 330.488281 268.945312 L 310.957031 268.945312 L 310.957031 265.042969 L 326.585938 265.042969 L 326.585938 261.121094 L 314.859375 261.121094 L 314.859375 257.21875 L 310.957031 257.21875 L 310.957031 253.3125 L 314.859375 253.3125 L 314.859375 249.410156 L 334.394531 249.410156 L 334.394531 253.3125 L 318.78125 253.3125 L 318.78125 257.21875 L 330.488281 257.21875 Z M 330.488281 261.121094 " fill-opacity="1" fill-rule="nonzero"/></g><path fill="#a6a6a6" d="M 295.023438 278.863281 C 294.734375 278.863281 294.492188 278.800781 294.300781 278.679688 C 294.109375 278.554688 293.972656 278.398438 293.890625 278.207031 L 293.816406 278.21875 L 293.6875 278.785156 L 293.101562 278.785156 L 294.28125 273.253906 L 294.863281 273.253906 L 294.402344 275.425781 L 294.472656 275.445312 C 294.789062 274.992188 295.246094 274.765625 295.84375 274.765625 C 296.09375 274.765625 296.320312 274.828125 296.519531 274.945312 C 296.722656 275.058594 296.882812 275.230469 296.996094 275.453125 C 297.113281 275.679688 297.175781 275.941406 297.175781 276.25 C 297.175781 276.425781 297.152344 276.617188 297.109375 276.8125 C 296.960938 277.523438 296.710938 278.042969 296.359375 278.371094 C 296.007812 278.699219 295.5625 278.863281 295.023438 278.863281 Z M 294.992188 278.339844 C 295.394531 278.339844 295.71875 278.222656 295.960938 277.984375 C 296.203125 277.742188 296.386719 277.351562 296.5 276.8125 C 296.546875 276.597656 296.570312 276.402344 296.570312 276.230469 C 296.570312 275.601562 296.261719 275.289062 295.648438 275.289062 C 295.273438 275.289062 294.949219 275.414062 294.679688 275.667969 C 294.410156 275.921875 294.21875 276.300781 294.109375 276.8125 C 294.066406 277.015625 294.042969 277.191406 294.042969 277.347656 C 294.042969 277.683594 294.128906 277.933594 294.292969 278.097656 C 294.460938 278.261719 294.695312 278.339844 294.992188 278.339844 Z M 294.992188 278.339844 " fill-opacity="1" fill-rule="nonzero"/><g clip-path="url(#e2828930df)"><path fill="#a6a6a6" d="M 297.554688 280.460938 C 297.425781 280.460938 297.308594 280.441406 297.199219 280.414062 C 297.089844 280.390625 296.992188 280.351562 296.910156 280.304688 L 297.113281 279.847656 L 297.183594 279.824219 C 297.234375 279.859375 297.296875 279.890625 297.382812 279.910156 C 297.46875 279.9375 297.554688 279.949219 297.644531 279.949219 C 297.800781 279.949219 297.933594 279.929688 298.042969 279.886719 C 298.160156 279.84375 298.261719 279.773438 298.355469 279.675781 C 298.449219 279.578125 298.546875 279.441406 298.65625 279.261719 L 298.890625 278.882812 L 298.152344 274.84375 L 298.75 274.84375 L 299.308594 278.0625 L 299.378906 278.0625 L 301.238281 274.84375 L 301.898438 274.84375 L 299.1875 279.421875 C 299.035156 279.679688 298.882812 279.882812 298.730469 280.03125 C 298.578125 280.1875 298.40625 280.292969 298.222656 280.355469 C 298.039062 280.425781 297.816406 280.460938 297.554688 280.460938 Z M 297.554688 280.460938 " fill-opacity="1" fill-rule="nonzero"/></g><path fill="#a6a6a6" d="M 303.871094 278.785156 L 304.976562 273.558594 L 306.960938 273.558594 C 307.230469 273.558594 307.453125 273.601562 307.644531 273.691406 C 307.832031 273.777344 307.976562 273.898438 308.074219 274.054688 C 308.171875 274.207031 308.222656 274.378906 308.222656 274.570312 C 308.222656 274.648438 308.210938 274.734375 308.191406 274.824219 C 308.125 275.113281 308.019531 275.339844 307.863281 275.511719 C 307.710938 275.679688 307.507812 275.800781 307.253906 275.871094 L 307.234375 275.941406 C 307.480469 276.019531 307.675781 276.148438 307.820312 276.332031 C 307.964844 276.507812 308.035156 276.738281 308.035156 277.011719 C 308.035156 277.136719 308.023438 277.257812 308 277.375 C 307.898438 277.832031 307.695312 278.183594 307.382812 278.421875 C 307.070312 278.664062 306.613281 278.785156 306 278.785156 Z M 306.464844 275.753906 C 306.65625 275.753906 306.824219 275.71875 306.976562 275.648438 C 307.128906 275.582031 307.25 275.492188 307.351562 275.375 C 307.445312 275.257812 307.511719 275.121094 307.546875 274.96875 C 307.566406 274.878906 307.578125 274.789062 307.578125 274.707031 C 307.578125 274.503906 307.515625 274.34375 307.386719 274.230469 C 307.261719 274.117188 307.074219 274.058594 306.828125 274.058594 L 305.484375 274.058594 L 305.128906 275.753906 Z M 306.066406 278.277344 C 306.804688 278.277344 307.25 277.941406 307.394531 277.265625 C 307.414062 277.167969 307.425781 277.082031 307.425781 277.003906 C 307.425781 276.769531 307.34375 276.585938 307.183594 276.457031 C 307.023438 276.328125 306.792969 276.261719 306.492188 276.261719 L 305.023438 276.261719 L 304.59375 278.277344 Z M 306.066406 278.277344 " fill-opacity="1" fill-rule="nonzero"/><path fill="#a6a6a6" d="M 310.085938 278.863281 C 309.855469 278.863281 309.65625 278.816406 309.492188 278.722656 C 309.328125 278.628906 309.203125 278.5 309.117188 278.335938 C 309.03125 278.167969 308.988281 277.976562 308.988281 277.761719 C 308.988281 277.636719 309.003906 277.503906 309.035156 277.367188 L 309.570312 274.84375 L 310.152344 274.84375 L 309.601562 277.457031 C 309.582031 277.53125 309.574219 277.613281 309.574219 277.691406 C 309.574219 277.894531 309.636719 278.058594 309.761719 278.175781 C 309.882812 278.292969 310.050781 278.355469 310.269531 278.355469 C 310.625 278.355469 310.925781 278.238281 311.179688 278.003906 C 311.433594 277.773438 311.613281 277.390625 311.726562 276.863281 L 312.15625 274.84375 L 312.742188 274.84375 L 311.902344 278.785156 L 311.351562 278.785156 L 311.484375 278.167969 L 311.414062 278.148438 C 311.25 278.398438 311.070312 278.578125 310.867188 278.691406 C 310.664062 278.804688 310.402344 278.863281 310.085938 278.863281 Z M 310.085938 278.863281 " fill-opacity="1" fill-rule="nonzero"/><path fill="#a6a6a6" d="M 313.273438 278.785156 L 314.113281 274.84375 L 314.667969 274.84375 L 314.539062 275.421875 L 314.617188 275.433594 C 314.734375 275.222656 314.90625 275.058594 315.132812 274.945312 C 315.359375 274.828125 315.609375 274.765625 315.886719 274.765625 C 316.179688 274.765625 316.398438 274.828125 316.550781 274.957031 C 316.699219 275.082031 316.804688 275.261719 316.867188 275.496094 L 316.945312 275.496094 C 317.132812 275.253906 317.335938 275.074219 317.546875 274.949219 C 317.757812 274.828125 318.007812 274.765625 318.296875 274.765625 C 318.617188 274.765625 318.863281 274.847656 319.035156 275.015625 C 319.210938 275.179688 319.296875 275.410156 319.296875 275.707031 C 319.296875 275.832031 319.285156 275.960938 319.257812 276.09375 L 318.6875 278.785156 L 318.109375 278.785156 L 318.675781 276.109375 C 318.695312 276.011719 318.707031 275.921875 318.707031 275.847656 C 318.707031 275.667969 318.648438 275.527344 318.539062 275.425781 C 318.433594 275.324219 318.273438 275.273438 318.0625 275.273438 C 317.75 275.273438 317.472656 275.390625 317.230469 275.617188 C 316.992188 275.84375 316.816406 276.21875 316.707031 276.746094 L 316.277344 278.785156 L 315.691406 278.785156 L 316.257812 276.109375 C 316.277344 276.011719 316.289062 275.921875 316.289062 275.847656 C 316.289062 275.667969 316.234375 275.527344 316.128906 275.425781 C 316.023438 275.324219 315.863281 275.273438 315.644531 275.273438 C 315.332031 275.273438 315.054688 275.386719 314.8125 275.605469 C 314.574219 275.828125 314.40625 276.1875 314.304688 276.6875 L 313.859375 278.785156 Z M 313.273438 278.785156 " fill-opacity="1" fill-rule="nonzero"/><path fill="#a6a6a6" d="M 324.289062 273.558594 L 324.183594 274.058594 L 321.71875 274.058594 L 321.320312 275.96875 L 323.527344 275.96875 L 323.425781 276.476562 L 321.210938 276.476562 L 320.722656 278.785156 L 320.105469 278.785156 L 321.210938 273.558594 Z M 324.289062 273.558594 " fill-opacity="1" fill-rule="nonzero"/><path fill="#a6a6a6" d="M 325.550781 278.863281 C 325.3125 278.863281 325.097656 278.808594 324.898438 278.703125 C 324.703125 278.59375 324.542969 278.429688 324.425781 278.207031 C 324.3125 277.988281 324.253906 277.714844 324.253906 277.386719 C 324.253906 277.167969 324.277344 276.945312 324.324219 276.71875 C 324.464844 276.070312 324.710938 275.582031 325.0625 275.253906 C 325.414062 274.929688 325.867188 274.765625 326.425781 274.765625 C 326.679688 274.765625 326.902344 274.828125 327.105469 274.945312 C 327.304688 275.058594 327.441406 275.222656 327.523438 275.433594 L 327.605469 275.421875 L 327.734375 274.84375 L 328.320312 274.84375 L 327.472656 278.785156 L 326.894531 278.785156 L 327.015625 278.207031 L 326.945312 278.195312 C 326.804688 278.410156 326.617188 278.578125 326.386719 278.691406 C 326.152344 278.804688 325.875 278.863281 325.550781 278.863281 Z M 325.773438 278.339844 C 326.144531 278.339844 326.464844 278.21875 326.734375 277.964844 C 327.011719 277.710938 327.203125 277.328125 327.316406 276.8125 C 327.347656 276.636719 327.367188 276.476562 327.367188 276.332031 C 327.367188 276 327.28125 275.742188 327.109375 275.5625 C 326.945312 275.378906 326.71875 275.289062 326.429688 275.289062 C 325.636719 275.289062 325.132812 275.796875 324.917969 276.8125 C 324.882812 276.976562 324.867188 277.140625 324.867188 277.304688 C 324.867188 277.519531 324.902344 277.707031 324.980469 277.863281 C 325.054688 278.019531 325.160156 278.140625 325.296875 278.21875 C 325.4375 278.300781 325.597656 278.339844 325.773438 278.339844 Z M 325.773438 278.339844 " fill-opacity="1" fill-rule="nonzero"/><g clip-path="url(#b2fb33c6c9)"><path fill="#a6a6a6" d="M 328.851562 278.785156 L 329.6875 274.84375 L 330.242188 274.84375 L 330.117188 275.421875 L 330.191406 275.433594 C 330.308594 275.222656 330.480469 275.058594 330.707031 274.945312 C 330.9375 274.828125 331.1875 274.765625 331.464844 274.765625 C 331.757812 274.765625 331.976562 274.828125 332.125 274.957031 C 332.273438 275.082031 332.378906 275.261719 332.445312 275.496094 L 332.519531 275.496094 C 332.710938 275.253906 332.910156 275.074219 333.125 274.949219 C 333.335938 274.828125 333.585938 274.765625 333.875 274.765625 C 334.191406 274.765625 334.4375 274.847656 334.613281 275.015625 C 334.785156 275.179688 334.875 275.410156 334.875 275.707031 C 334.875 275.832031 334.859375 275.960938 334.835938 276.09375 L 334.261719 278.785156 L 333.683594 278.785156 L 334.25 276.109375 C 334.269531 276.011719 334.28125 275.921875 334.28125 275.847656 C 334.28125 275.667969 334.226562 275.527344 334.117188 275.425781 C 334.011719 275.324219 333.851562 275.273438 333.640625 275.273438 C 333.324219 275.273438 333.046875 275.390625 332.804688 275.617188 C 332.566406 275.84375 332.394531 276.21875 332.285156 276.746094 L 331.851562 278.785156 L 331.265625 278.785156 L 331.832031 276.109375 C 331.855469 276.011719 331.863281 275.921875 331.863281 275.847656 C 331.863281 275.667969 331.8125 275.527344 331.707031 275.425781 C 331.597656 275.324219 331.4375 275.273438 331.222656 275.273438 C 330.90625 275.273438 330.632812 275.386719 330.390625 275.605469 C 330.152344 275.828125 329.980469 276.1875 329.878906 276.6875 L 329.433594 278.785156 Z M 328.851562 278.785156 " fill-opacity="1" fill-rule="nonzero"/></g></svg>